HIERARCHY
ROOT Pelvis
{
	OFFSET 0.000000 0.000000 0.000000
	CHANNELS 6 Xposition Yposition Zposition Xrotation Yrotation Zrotation
	JOINT LeftUpLeg_virtual
	{
		OFFSET 0.000000 0.000000 0.000000
		CHANNELS 3 Xrotation Yrotation Zrotation
		JOINT LeftUpLeg
		{
			OFFSET 18.735201 -5.666702 -4.541200
			CHANNELS 3 Xrotation Yrotation Zrotation
			JOINT LeftLeg
			{
				OFFSET -0.021200 -31.938179 0.493100
				CHANNELS 3 Xrotation Yrotation Zrotation
				JOINT LeftFoot
				{
					OFFSET 0.021200 -31.938179 -4.336299
					CHANNELS 3 Xrotation Yrotation Zrotation
					JOINT LeftToeBase
					{
						OFFSET 0.943001 -26.722000 15.023500
						CHANNELS 3 Xrotation Yrotation Zrotation
						End Site
						{
							OFFSET 0 0 0
						}
					}
				}
			}
		}
	}
	JOINT RightUpLeg_virtual
	{
		OFFSET 0.000000 0.000000 0.000000
		CHANNELS 3 Xrotation Yrotation Zrotation
		JOINT RightUpLeg
		{
			OFFSET -18.735201 -5.666702 -4.541200
			CHANNELS 3 Xrotation Yrotation Zrotation
			JOINT RightLeg
			{
				OFFSET 0.018946 -31.938133 0.493100
				CHANNELS 3 Xrotation Yrotation Zrotation
				JOINT RightFoot
				{
					OFFSET -0.018946 -31.938126 -4.336299
					CHANNELS 3 Xrotation Yrotation Zrotation
					JOINT RightToeBase
					{
						OFFSET -0.943001 -26.722004 15.023500
						CHANNELS 3 Xrotation Yrotation Zrotation
						End Site
						{
							OFFSET 0 0 0
						}
					}
				}
			}
		}
	}
	JOINT Hips_virtual
	{
		OFFSET 0.000000 0.000000 0.000000
		CHANNELS 3 Xrotation Yrotation Zrotation
		JOINT Hips
		{
			OFFSET -0.000000 -0.000000 -0.000000
			CHANNELS 3 Xrotation Yrotation Zrotation
			JOINT Spine
			{
				OFFSET 0.000000 10.199997 -0.299500
				CHANNELS 3 Xrotation Yrotation Zrotation
				JOINT Spine1
				{
					OFFSET 0.000000 11.900002 -1.516600
					CHANNELS 3 Xrotation Yrotation Zrotation
					JOINT Spine2
					{
						OFFSET 0.000000 13.600006 -2.842500
						CHANNELS 3 Xrotation Yrotation Zrotation
						JOINT Neck_virtual
						{
							OFFSET 0.000000 0.000000 0.000000
							CHANNELS 3 Xrotation Yrotation Zrotation
							JOINT Neck
							{
								OFFSET 0.000000 9.624100 -2.890100
								CHANNELS 3 Xrotation Yrotation Zrotation
								JOINT Head
								{
									OFFSET 0.000000 14.068802 -1.351900
									CHANNELS 3 Xrotation Yrotation Zrotation
									End Site
									{
										OFFSET 0 0 0
									}
								}
							}
						}
						JOINT LeftShoulder_virtual
						{
							OFFSET 0.000000 0.000000 0.000000
							CHANNELS 3 Xrotation Yrotation Zrotation
							JOINT LeftShoulder
							{
								OFFSET 15.263000 10.923401 -0.547700
								CHANNELS 3 Xrotation Yrotation Zrotation
								JOINT LeftArm
								{
									OFFSET 25.438599 -2.830597 -13.032500
									CHANNELS 3 Xrotation Yrotation Zrotation
									JOINT LeftForeArm
									{
										OFFSET 29.960503 0.000000 0.000000
										CHANNELS 3 Xrotation Yrotation Zrotation
										JOINT LeftHand
										{
											OFFSET 27.849251 0.000000 0.000000
											CHANNELS 3 Xrotation Yrotation Zrotation
											End Site
											{
												OFFSET 0 0 0
											}
										}
									}
								}
							}
						}
						JOINT RightShoulder_virtual
						{
							OFFSET 0.000000 0.000000 0.000000
							CHANNELS 3 Xrotation Yrotation Zrotation
							JOINT RightShoulder
							{
								OFFSET -15.263000 10.923401 -0.547700
								CHANNELS 3 Xrotation Yrotation Zrotation
								JOINT RightArm
								{
									OFFSET -25.438599 -2.830597 -13.032500
									CHANNELS 3 Xrotation Yrotation Zrotation
									JOINT RightForeArm
									{
										OFFSET -29.960503 0.000000 0.000000
										CHANNELS 3 Xrotation Yrotation Zrotation
										JOINT RightHand
										{
											OFFSET -27.849251 0.000000 0.000000
											CHANNELS 3 Xrotation Yrotation Zrotation
											End Site
											{
												OFFSET 0 0 0
											}
										}
									}
								}
							}
						}
					}
				}
			}
		}
	}
}
MOTION
Frames: 6
Frame Time: 0.03333333
-4.683530 91.352089 -5.043125 0.000000 0.000000 0.000000 6.185272 -13.889411 -2.594384 -32.878731 8.336692 12.784666 38.117903 4.803354 -0.650121 -10.204243 5.133257 -3.130061 0.000000 0.000000 0.000000 5.685950 -9.917691 0.596869 -22.924509 -7.639350 -15.191613 31.737847 2.002077 -1.362621 -18.215882 -1.533306 10.099750 0.000000 0.000000 0.000000 -0.796395 -1.837257 0.234987 0.710501 8.888621 -1.064586 7.948155 1.241304 -2.836066 2.457343 1.148291 -1.222256 0.000000 0.000000 0.000000 0.830082 0.348877 -0.195001 -1.437899 0.500462 -0.094797 0.000000 0.000000 0.000000 1.028363 1.472784 -0.158017 0.603521 0.650897 -5.693901 -11.696229 -5.926244 -54.638877 -0.743848 -43.523441 -6.085864 0.000000 0.000000 0.000000 2.470739 0.475264 -1.356417 2.113011 8.989139 -0.275325 -1.487396 0.477433 54.155453 -1.535828 46.377667 7.910645 0.000000 0.000000 0.000000 
-4.691619 91.367073 -5.065485 0.000000 0.000000 0.000000 6.251567 -13.969807 -2.527055 -32.809353 8.309137 12.843351 38.128145 4.871375 -0.666682 -10.192910 5.212667 -3.121946 0.000000 0.000000 0.000000 5.721747 -9.906461 0.617760 -22.861299 -7.647972 -15.159856 31.630859 2.011265 -1.356905 -18.308182 -1.533689 10.097371 0.000000 0.000000 0.000000 -0.806970 -1.904820 0.236773 0.747279 9.034975 -1.164484 8.024430 1.202999 -2.877455 2.485893 1.152431 -1.215401 0.000000 0.000000 0.000000 0.834876 0.333447 -0.179392 -1.433668 0.502499 -0.093178 0.000000 0.000000 0.000000 1.003834 1.452908 -0.141870 0.602841 0.648388 -5.643570 -11.782529 -6.044486 -54.592117 -0.712515 -43.683103 -6.098762 0.000000 0.000000 0.000000 2.488495 0.486649 -1.358102 2.183030 8.979604 -0.275227 -1.434708 0.170698 54.297316 -1.626783 46.201725 8.042847 0.000000 0.000000 0.000000 
-4.699356 91.390160 -5.102013 0.000000 0.000000 0.000000 6.373122 -14.116750 -2.408553 -32.679928 8.260165 12.944732 38.148779 4.998275 -0.700562 -10.169964 5.362477 -3.111259 0.000000 0.000000 0.000000 5.794631 -9.873733 0.654017 -22.734934 -7.661467 -15.102523 31.439900 2.030993 -1.344267 -18.471639 -1.531831 10.098197 0.000000 0.000000 0.000000 -0.829932 -2.047143 0.247079 0.801001 9.317264 -1.329156 8.165362 1.138611 -2.948900 2.542422 1.158534 -1.202501 0.000000 0.000000 0.000000 0.842305 0.305907 -0.149369 -1.424905 0.505265 -0.089743 0.000000 0.000000 0.000000 0.959465 1.415011 -0.112840 0.600726 0.639758 -5.548532 -11.937481 -6.255205 -54.494978 -0.660733 -43.995448 -6.125194 0.000000 0.000000 0.000000 2.521842 0.506545 -1.360850 2.309050 8.952317 -0.279459 -1.337344 -0.396941 54.558595 -1.782723 45.870977 8.281714 0.000000 0.000000 0.000000 
-4.694526 91.410408 -5.140719 0.000000 0.000000 0.000000 6.530636 -14.306917 -2.265189 -32.507821 8.199685 13.063342 38.179497 5.167979 -0.753492 -10.135857 5.567044 -3.108528 0.000000 0.000000 0.000000 5.904726 -9.805538 0.695731 -22.548474 -7.673934 -15.031054 31.207418 2.063365 -1.324175 -18.668497 -1.522528 10.109389 0.000000 0.000000 0.000000 -0.865858 -2.270524 0.276119 0.843518 9.715154 -1.504635 8.353934 1.066716 -3.032668 2.624836 1.162784 -1.184841 0.000000 0.000000 0.000000 0.849431 0.271005 -0.107417 -1.411372 0.506407 -0.084361 0.000000 0.000000 0.000000 0.903745 1.362475 -0.075816 0.597217 0.619450 -5.419184 -12.133279 -6.513420 -54.343997 -0.607275 -44.442217 -6.166493 0.000000 0.000000 0.000000 2.567296 0.530238 -1.364204 2.468214 8.894301 -0.296029 -1.207014 -1.145797 54.898974 -1.962309 45.426721 8.583685 0.000000 0.000000 0.000000 
-4.667925 91.417130 -5.172185 0.000000 0.000000 0.000000 6.701143 -14.515240 -2.124472 -32.315879 8.137691 13.173639 38.218993 5.361115 -0.828063 -10.092776 5.807764 -3.127514 0.000000 0.000000 0.000000 6.048124 -9.692651 0.730823 -22.311284 -7.679568 -14.960107 30.987646 2.110450 -1.298872 -18.852758 -1.498488 10.134776 0.000000 0.000000 0.000000 -0.910482 -2.569441 0.332588 0.855290 10.198978 -1.642592 8.576204 1.003980 -3.111813 2.728714 1.160880 -1.163778 0.000000 0.000000 0.000000 0.854316 0.232434 -0.057368 -1.393386 0.503131 -0.077364 0.000000 0.000000 0.000000 0.847395 1.299591 -0.035110 0.594586 0.582708 -5.269436 -12.343519 -6.765792 -54.140656 -0.574302 -44.988448 -6.224589 0.000000 0.000000 0.000000 2.621371 0.552744 -1.368591 2.636637 8.793641 -0.334461 -1.054156 -1.981335 55.268146 -2.124329 44.927359 8.898666 0.000000 0.000000 0.000000 
-4.618535 91.403511 -5.194148 0.000000 0.000000 0.000000 6.862677 -14.723238 -2.007500 -32.128896 8.080939 13.257415 38.264912 5.559056 -0.926847 -10.044780 6.066679 -3.181832 0.000000 0.000000 0.000000 6.215802 -9.535392 0.747866 -22.039808 -7.674383 -14.904497 30.834998 2.173813 -1.273832 -18.980833 -1.451616 10.172663 0.000000 0.000000 0.000000 -0.954029 -2.919940 0.419069 0.838208 10.730502 -1.720293 8.826629 0.959166 -3.176075 2.847685 1.149527 -1.140531 0.000000 0.000000 0.000000 0.856826 0.191366 -0.004276 -1.372180 0.493116 -0.069841 0.000000 0.000000 0.000000 0.801422 1.230810 0.006920 0.596994 0.528084 -5.115278 -12.554309 -6.962459 -53.893990 -0.582998 -45.581565 -6.301604 0.000000 0.000000 0.000000 2.681628 0.570195 -1.375205 2.796327 8.645467 -0.402260 -0.885650 -2.813359 55.615300 -2.240557 44.441606 9.181218 0.000000 0.000000 0.000000 
